{"title":"The Tempest 2011 XViD DVDRip DTRG - SAFCuk009","uid":6426923,"size":1320567962,"categoryP":"video","categoryS":"movies","magnet":"?xt=urn:btih:198fbcab748bbcc6c77d978c5a1cc6266c07fcbd&amp;dn=The+Tempest+2011+XViD+DVDRip+DTRG+-+SAFCuk009&amp;tr=udp%3A%2F%2Ftracker.openbittorrent.com%3A80&amp;tr=udp%3A%2F%2Fopen.demonii.com%3A1337&amp;tr=udp%3A%2F%2Ftracker.coppersurfer.tk%3A6969&amp;tr=udp%3A%2F%2Fexodus.desync.com%3A6969","seeders":2,"leechers":0,"uploader":"SAFCukO09","files":3,"time":1306506547,"description":"Video\nID : 0\nFormat : MPEG-4 Visual\nFormat profile : Advanced Simple@L5\nFormat settings, BVOP : 2\nFormat settings, QPel : No\nFormat settings, GMC : No warppoints\nFormat settings, Matrix : Default (H.263)\nMuxing mode : Packed bitstream\nCodec ID : XVID\nCodec ID/Hint : XviD\nDuration : 1h 45mn\nBit rate : 1 534 Kbps\nWidth : 672 pixels\nHeight : 368 pixels\nDisplay aspect ratio : 16:9\nFrame rate : 25.000 fps\nColor space : YUV\nChroma subsampling : 4:2:0\nBit depth : 8 bits\nScan type : Progressive\nCompression mode : Lossy\nBits/(Pixel*Frame) : 0.248\nStream size : 1.13 GiB (92%)\nWriting library : XviD 63\n\nAudio\nID : 1\nFormat : MPEG Audio\nFormat version : Version 1\nFormat profile : Layer 3\nMode : Joint stereo\nCodec ID : 55\nCodec ID/Hint : MP3\nDuration : 1h 45mn\nBit rate mode : Constant\nBit rate : 128 Kbps\nChannel(s) : 2 channels\nSampling rate : 48.0 KHz\nCompression mode : Lossy\nStream size : 96.4 MiB (8%)\nAlignment : Split accross interleaves\nInterleave, duration : 40 ms (1.00 video frame)\nInterleave, preload duration : 500 ms\n\n\n\n &lt;a href=&quot;\nhttp://www.imdb.com/title/tt1274300/&quot; rel=&quot;nofollow&quot; target=&quot;_NEW&quot;&gt;\nhttp://www.imdb.com/title/tt1274300/&lt;/a&gt;\n\n\n\n\n\n\n\nn Shakespeare's fantastical thriller the magician Prospero orchestrates spirits, monsters, a grief-stricken king, a wise old councillor, two treacherous brothers and a storm at sea into a fantastical conspiracy bringing banishment, sorcery and shipwreck into the lives of two hapless lovers to stir and seal their fate. Here Prospero takes female form as Prospera, giving her journey of vengeance and self-discovery a wholly new resonance. As Prospera breaks her magical staff against an entrancing volcanic landscape at the end of her heroic quest, this poignant story of love and forgiveness translates into a riveting and filmic mystical tale, for our own times.\n\n\n\n\n\n\n\n\n\n\n\n\n\n\n\n\nSource Used\n\n\nAbsurdity ...............\n\n\nGreetz to IMAGiNE,Flawl3ss,DiLLoN,BDK,NOiR,TOXiCiNK,THC,Ez,Rx,Boobyblue,TaRiQ786,LKRG,CrEwSaDe","torrent":{"xt":"urn:btih:198fbcab748bbcc6c77d978c5a1cc6266c07fcbd","amp;dn":"The+Tempest+2011+XViD+DVDRip+DTRG+-+SAFCuk009","amp;tr":["udp%3A%2F%2Ftracker.openbittorrent.com%3A80","udp%3A%2F%2Fopen.demonii.com%3A1337","udp%3A%2F%2Ftracker.coppersurfer.tk%3A6969","udp%3A%2F%2Fexodus.desync.com%3A6969"],"infoHash":"198fbcab748bbcc6c77d978c5a1cc6266c07fcbd","infoHashBuffer":{"type":"Buffer","data":[25,143,188,171,116,139,188,198,199,125,151,140,90,28,198,38,108,7,252,189]},"announce":[],"urlList":[]}}